<svg xmlns="http://www.w3.org/2000/svg" version="1.1" xmlns:xlink="http://www.w3.org/1999/xlink" xmlns:svgjs="http://svgjs.dev/svgjs" width="1000" height="796" viewBox="0 0 1000 796"><g transform="matrix(1,0,0,1,0.2005649717514757,-1.126255319148754)"><svg viewBox="0 0 177 141" data-background-color="#ffffff" preserveAspectRatio="xMidYMid meet" height="796" width="1000" xmlns="http://www.w3.org/2000/svg" xmlns:xlink="http://www.w3.org/1999/xlink"><g id="tight-bounds" transform="matrix(1,0,0,1,-0.03550000000001319,0.19949999999997203)"><svg viewBox="0 0 177.0707855850235 140.60052000000002" height="140.60052000000002" width="177.0707855850235"><g><svg viewBox="0 0 177.0707855850235 140.60052000000002" height="140.60052000000002" width="177.0707855850235"><g><svg viewBox="0 0 177.0707855850235 140.60052000000002" height="140.60052000000002" width="177.0707855850235"><g><path d="M0 140.601v-140.601h177.071v140.601z" fill="#ff0000" stroke="transparent" stroke-width="0" rx="0%" data-fill-palette-color="tertiary"></path><path d="M3.283 137.317v-134.034h170.505v134.034z" fill="#ffffff" stroke="transparent" stroke-width="0" rx="0%" data-fill-palette-color="quaternary"></path><path d="M9.85 130.751v-120.901h157.371v120.901z" fill="#ff0000" stroke="transparent" stroke-width="0" data-fill-palette-color="tertiary"></path></g><g transform="matrix(1,0,0,1,19.699740000000013,19.69974)" id="textblocktransform"><svg viewBox="0 0 137.67130558502348 101.20104000000002" height="101.20104000000002" width="137.67130558502348" id="textblock"><g><svg viewBox="0 0 137.67130558502348 101.20104000000002" height="101.20104000000002" width="137.67130558502348"><g transform="matrix(1,0,0,1,0,0)"><svg width="137.67130558502348" viewBox="1 -31.549999237060547 43.599998474121094 32.04999923706055" height="101.20104000000002" data-palette-color="#ffffff"><path d="M11.8-15.15Q11.8-11.35 12.65-9.63 13.5-7.9 15.5-7.9 17.5-7.9 22.15-9L22.15-9 23.75-1.05Q18.85 0.5 14.3 0.5L14.3 0.5Q7.35 0.5 4.17-3.48 1-7.45 1-15.33 1-23.2 4.3-27.38 7.6-31.55 15.05-31.55L15.05-31.55Q19.4-31.55 23.75-29.85L23.75-29.85 22.1-20.95Q17.15-22.4 15.33-22.4 13.5-22.4 12.65-20.68 11.8-18.95 11.8-15.15ZM44.6-8.05L43.9 0 25.25 0 25.25-31.05 35.95-31.05 35.95-8.05 44.6-8.05Z" opacity="1" transform="matrix(1,0,0,1,0,0)" fill="#ffffff" class="undefined-text-0" data-fill-palette-color="quaternary" id="text-0"></path></svg></g></svg></g></svg></g></svg></g><g></g></svg></g><defs></defs></svg><rect width="177.0707855850235" height="140.60052000000002" fill="none" stroke="none" visibility="hidden"></rect></g></svg></g></svg>